<?xml version="1.0" standalone="no"?>
<!DOCTYPE svg PUBLIC "-//W3C//DTD SVG 1.1//EN" "http://www.w3.org/Graphics/SVG/1.1/DTD/svg11.dtd" >
<svg xmlns="http://www.w3.org/2000/svg">
<metadata></metadata>
<defs>
<font id="hk_grotesklight_italic" horiz-adv-x="1529" >
<font-face units-per-em="2048" ascent="1434" descent="-614" />
<missing-glyph horiz-adv-x="567" />
<glyph unicode="&#xfb01;" horiz-adv-x="976" d="M90 0l156 887h-142l21 112l145 7q15 88 45.5 161t78.5 135t121 97t165 35q46 0 90 -7.5t98.5 -36t85.5 -75.5l-80 -92q-43 56 -87 77t-97 21q-68 0 -121 -27t-86.5 -75t-54 -103.5t-31.5 -122.5l506 6l-176 -999h-121l156 887h-385l-158 -887h-129z" />
<glyph unicode="&#xfb02;" horiz-adv-x="974" d="M90 0l156 887h-142l21 112h143l27 152q25 143 127 213t254 70q154 0 278 -138l-196 -1136q-6 -28 -3 -39.5t29 -11.5q14 0 33.5 3.5t32.5 7.5l12 3l-14 -115h2q-11 -10 -60 -22q-27 -6 -47 -6q-43 0 -69 19t-33.5 54.5t-6.5 71t9 84.5l188 1048q-10 24 -50 43t-99 19 q-122 0 -183 -43.5t-81 -149.5l-23 -127h223l-20 -112h-221l-158 -887h-129z" />
<glyph horiz-adv-x="0" />
<glyph horiz-adv-x="682" />
<glyph unicode=" "  horiz-adv-x="567" />
<glyph unicode="&#x09;" horiz-adv-x="567" />
<glyph unicode="&#xa0;" horiz-adv-x="567" />
<glyph unicode="!" horiz-adv-x="548" d="M80 0l31 182h184l-31 -182h-184zM186 373l160 1063h160l-217 -1063h-103z" />
<glyph unicode="&#x22;" horiz-adv-x="708" d="M219 1004l74 409h123l-74 -409h-123zM512 1004l76 409h123l-76 -409h-123z" />
<glyph unicode="#" horiz-adv-x="1478" d="M145 444l17 101h262l131 344h-250l17 98h270l172 447h108l-170 -437h332l168 437h107l-168 -445h241l-16 -100h-262l-131 -344h250l-17 -99h-270l-172 -446h-109l170 436h-331l-168 -436h-109l170 444h-242zM532 545h332l131 344h-331z" />
<glyph unicode="$" horiz-adv-x="1097" d="M47 369l143 30q-10 -139 72 -209.5t217 -70.5q134 0 228 69t118 201q10 58 -5 105.5t-48.5 80.5t-79.5 61.5t-98 53t-103.5 50t-97 57.5t-78 71t-46 95t-1.5 124q26 141 132 233t251 110l45 229h90l-45 -227q112 -8 192.5 -63.5t119.5 -160.5l-119 -69 q-30 83 -93.5 125.5t-146.5 42.5q-99 0 -182.5 -63t-101.5 -163q-9 -55 6.5 -100.5t49.5 -76t80.5 -59t98.5 -50.5t104 -50.5t97 -58.5t77 -75t44.5 -99.5t-0.5 -132.5q-30 -173 -161 -280t-310 -113l-45 -232h-91l46 234q-159 16 -260.5 116.5t-98.5 264.5z" />
<glyph unicode="%" horiz-adv-x="1527" d="M203.5 1047.5q1.5 44.5 5.5 85.5q9 51 29.5 100.5t54 97t85 76.5t114.5 29q61 0 106 -28.5t65.5 -74.5t28 -104.5t-5.5 -118.5q-21 -120 -96 -210.5t-184 -90.5q-55 0 -95.5 20.5t-61.5 54.5t-34 76.5t-11.5 87zM223 6l994 1393h122l-993 -1393h-123zM295.5 1014 q1.5 -47 28.5 -81t75 -34q73 0 125 73t66 161q7 50 5 97t-28.5 80t-74.5 33q-74 0 -125 -69.5t-66 -161.5q-7 -51 -5.5 -98zM888 241q1 44 5 85q8 40 22 79.5t38.5 80.5t55.5 71.5t75.5 50t95.5 19.5q60 0 104 -28.5t64.5 -74.5t27.5 -104t-6 -117q-13 -76 -48 -142 t-96.5 -111.5t-135.5 -45.5q-54 0 -94.5 20.5t-62 54t-34 76t-11.5 86.5zM982.5 208.5q2.5 -46.5 29.5 -80.5t75 -34q73 0 124 72t63 158q7 50 5.5 97t-28 80.5t-73.5 33.5q-39 0 -73 -20.5t-58 -55t-39.5 -73.5t-22.5 -81q-5 -50 -2.5 -96.5z" />
<glyph unicode="&#x26;" horiz-adv-x="1230" d="M70 328q13 66 60 133.5t105 116.5t118.5 89.5t101 61.5t51.5 23q-1 2 -14 19.5t-25 35.5t-30.5 49t-30.5 60t-24.5 68t-13.5 74t3 77q27 135 135 215t244 80q132 0 208 -90t52 -224q-9 -54 -45.5 -111.5t-81.5 -100t-94.5 -80t-81 -57t-43.5 -24.5l237 -362 q33 43 67 121.5t52 135.5l18 58l121 -14l-9 -28q-9 -27 -26 -73t-39.5 -97.5t-54.5 -107.5t-65 -95l176 -256l-94 -76l-160 229q-114 -108 -228.5 -153t-248.5 -45q-85 0 -153 21t-116 62t-67.5 109t-3.5 156zM178 309q-10 -58 6.5 -100t54 -64.5t82.5 -32.5t101 -10 q228 0 405 174l-278 392l-44 -23q-182 -106 -270 -219q-47 -62 -57 -117zM479 1114q-6 -45 10.5 -97t42 -90t48.5 -64t30 -27h6q45 17 123 76q151 115 172 223q14 79 -35 129.5t-126 50.5q-94 0 -173.5 -53.5t-97.5 -147.5zM506 750q2 -2 2 0h-2zM610 836h2q-2 -2 -2 0z" />
<glyph unicode="'" horiz-adv-x="348" d="M193 1032l71 410h123l-72 -410h-122z" />
<glyph unicode="(" horiz-adv-x="630" d="M93.5 197.5q5.5 187.5 33.5 351.5q46 263 152.5 530t257.5 459l114 -4q-148 -198 -260 -474t-158 -534q-28 -162 -33.5 -333.5t17.5 -346t76 -307.5l-103 6q-53 105 -77.5 285t-19 367.5z" />
<glyph unicode=")" horiz-adv-x="630" d="M-33 -457q147 196 257.5 471t156.5 533q46 256 29.5 525t-88.5 468l106 -6q55 -132 79 -308t17 -350.5t-37 -345.5q-44 -255 -159 -544.5t-250 -448.5z" />
<glyph unicode="*" horiz-adv-x="778" d="M195 1159l49 103l219 -101l14 252h101l-78 -252l250 101l14 -103l-260 -39l141 -207l-90 -61l-82 238l-170 -238l-74 61l215 207z" />
<glyph unicode="+" horiz-adv-x="1241" d="M113 573v103h456v467h103v-467h456v-103h-456v-467h-103v467h-456z" />
<glyph unicode="," horiz-adv-x="460" d="M-53 -225l190 489h180l-284 -489h-86z" />
<glyph unicode="-" horiz-adv-x="890" d="M205 637l16 102h502l-16 -102h-502z" />
<glyph unicode="." horiz-adv-x="413" d="M8 0l31 182h192l-30 -182h-193z" />
<glyph unicode="/" horiz-adv-x="942" d="M-154 -430l1090 1946h145l-1089 -1946h-146z" />
<glyph unicode="0" horiz-adv-x="1200" d="M103 549.5q3 83.5 18 167.5q17 100 49.5 196.5t86.5 192.5t121.5 168t162 117t202.5 45q84 0 153.5 -29t117.5 -80.5t81 -121.5t47.5 -153t14 -173.5t-17.5 -184.5q-25 -138 -80 -264.5t-133 -227.5t-185 -161.5t-225 -60.5q-95 0 -169.5 32t-121 87.5t-76.5 127 t-39.5 155.5t-6.5 167.5zM240.5 540q-3.5 -77 8.5 -156t41.5 -138.5t88 -97t139.5 -37.5q79 0 150 40t122 102.5t93 144.5t67 161t39 158t17 155.5t-9.5 155.5t-41 138t-85 96.5t-135.5 37.5q-80 0 -152 -38.5t-124.5 -100t-94.5 -142.5t-67 -161.5t-39 -161.5 q-14 -79 -17.5 -156z" />
<glyph unicode="1" horiz-adv-x="782" d="M170 1087l23 121h167q82 0 143 54t75 131l4 20h129l-250 -1413h-146l191 1087h-336z" />
<glyph unicode="2" horiz-adv-x="1142" d="M-16 0l18 133q337 191 533 387q87 77 141.5 131t106 120t81.5 134.5t45 149.5q19 116 -38 183t-169 67q-122 0 -220 -95t-132 -260l-139 25q39 222 172 339.5t330 117.5q192 0 284 -113t58 -307q-27 -143 -133 -284t-304 -314q-109 -89 -199 -153.5t-121.5 -83.5 t-102.5 -60l772 4l-23 -121h-960z" />
<glyph unicode="3" horiz-adv-x="1138" d="M41 397l135 4q-24 -141 57.5 -219t219.5 -78q89 0 172 33.5t146.5 105.5t80.5 169q23 135 -54 204.5t-212 69.5h-92l22 127h84q108 0 188 67.5t101 186.5q20 110 -43 175t-170 65q-116 0 -207.5 -72t-112.5 -188l-127 26q30 168 157 264.5t296 96.5q172 0 271 -101.5 t71 -271.5q-15 -95 -74 -175t-155 -128q113 -38 159 -136.5t27 -232.5q-24 -133 -103.5 -227t-190 -138t-241.5 -44q-134 0 -232.5 46t-147 142t-25.5 229z" />
<glyph unicode="4" horiz-adv-x="1159" d="M31 387l14 82l827 944h134l-160 -905h225l-22 -121h-226l-67 -387h-140l68 387h-653zM219 508h488l120 688z" />
<glyph unicode="5" horiz-adv-x="1148" d="M98 371l131 32q2 -44 10 -84t27.5 -81.5t48.5 -71t76 -48t107 -18.5q93 0 178 55t138.5 138t70.5 174q14 65 2.5 124.5t-40 106t-83.5 74t-127 27.5q-87 0 -174.5 -43.5t-147.5 -116.5l-110 66l248 708h684l-21 -125h-577l-168 -481q154 108 307 108q114 0 203.5 -62.5 t130.5 -172t18 -238.5q-22 -121 -102.5 -227.5t-197.5 -170.5t-238 -64q-167 0 -278 113.5t-116 277.5z" />
<glyph unicode="6" horiz-adv-x="1171" d="M133 459q20 124 105 233l540 721h158l-414 -532q56 12 140 12q196 0 309 -130.5t80 -326.5q-21 -121 -97.5 -225t-193 -167.5t-244.5 -63.5q-95 0 -175 38t-131.5 102t-72.5 153t-4 186zM268 438q-25 -136 50 -232.5t206 -96.5q138 0 251.5 101.5t139.5 246.5 q25 136 -50 231.5t-206 95.5q-137 0 -251 -101.5t-140 -244.5z" />
<glyph unicode="7" horiz-adv-x="1009" d="M117 0l827 1288h-743l22 125h910l-13 -72l-841 -1341h-162z" />
<glyph unicode="8" horiz-adv-x="1187" d="M94 399q23 126 104.5 220.5t213.5 146.5q-76 45 -110 130t-15 187q19 109 86 190t161 121t201 40q170 0 269 -101t71 -270q-40 -205 -237 -307q111 -44 161 -145t27 -234q-18 -98 -68.5 -175.5t-122.5 -125t-158.5 -72t-182.5 -24.5q-98 0 -178 26.5t-137 77t-80.5 132 t-4.5 183.5zM231 387q-26 -138 55 -213.5t214 -75.5q89 0 169 34t141 106.5t79 171.5q24 137 -54 212.5t-214 75.5q-142 0 -253.5 -82.5t-136.5 -228.5zM422 1059q-20 -115 37 -185.5t170 -70.5q111 0 201.5 73t111.5 191q21 113 -40.5 178.5t-168.5 65.5q-106 0 -198 -68.5 t-113 -183.5z" />
<glyph unicode="9" horiz-adv-x="1159" d="M176 977q21 121 97 225t192 168t244 64q127 0 224 -64.5t140.5 -175t20.5 -240.5q-23 -126 -107 -233l-538 -721h-156l409 532q-54 -12 -137 -12q-196 0 -310.5 131t-78.5 326zM311 956q-25 -136 49 -231.5t205 -95.5q137 0 252 101.5t141 244.5q23 137 -51.5 233.5 t-204.5 96.5q-138 0 -252 -102t-139 -247z" />
<glyph unicode=":" horiz-adv-x="409" d="M10 0l31 182h184l-30 -182h-185zM147 772l31 182h184l-30 -182h-185z" />
<glyph unicode=";" horiz-adv-x="491" d="M-156 -225l191 489h180l-285 -489h-86zM229 772l31 182h184l-30 -182h-185z" />
<glyph unicode="&#x3c;" horiz-adv-x="1234" d="M141 674l885 502l61 -107l-720 -395l720 -395l-61 -107z" />
<glyph unicode="=" horiz-adv-x="1095" d="M174 440v125h748v-125h-748zM174 778v125h748v-125h-748z" />
<glyph unicode="&#x3e;" horiz-adv-x="1234" d="M147 279l721 395l-721 395l62 107l885 -502l-885 -502z" />
<glyph unicode="?" horiz-adv-x="1032" d="M201 1079q21 108 89 189.5t161 123t198 42.5q117 0 203.5 -41t130 -126t23.5 -200q-12 -67 -39.5 -119t-63 -83t-76.5 -55.5t-80.5 -43.5t-73.5 -39t-58 -50.5t-31 -70.5l-41 -237h-125l43 247q10 57 36 99t60 67t73.5 45.5l79 41t73.5 46t60 69.5t36 103q19 112 -45 169 t-179 57q-113 0 -207 -66.5t-116 -179.5zM326 0l30 182h185l-31 -182h-184z" />
<glyph unicode="@" horiz-adv-x="2002" d="M127 543q0 180 70.5 344.5t189 284t281.5 190t342 70.5t342.5 -70.5t281.5 -189t188 -283.5t70 -346q0 -87 -16 -169.5t-51.5 -160t-87 -135.5t-128.5 -92.5t-169 -34.5q-121 0 -188.5 78.5t-47.5 201.5q-59 -75 -145 -118t-180 -43q-99 0 -170.5 52.5t-104.5 134 t-33 179.5q0 103 31.5 207t88.5 192t148 143.5t199 55.5q94 0 169.5 -54t92.5 -144l31 149h142q-15 -79 -56 -238t-65.5 -290.5t-24.5 -247.5q0 -54 33 -83.5t86 -29.5q67 0 121.5 29.5t88.5 76t57 108t32.5 121t9.5 118.5q0 152 -59 291t-159 239.5t-238 160.5t-289 60 t-289 -60t-238 -161t-159.5 -240.5t-59.5 -291.5t59.5 -292t159.5 -241t238 -161t289 -60q119 0 241 39l52 -129q-145 -51 -293 -51q-179 0 -342.5 71t-282 190.5t-188.5 284.5t-70 345zM702 430q0 -99 49 -159t146 -60q69 0 128 29t99.5 76.5t70 108.5t43 125t13.5 126 q0 99 -48.5 158t-145.5 59q-85 0 -155 -43.5t-112.5 -112.5t-65 -148.5t-22.5 -158.5z" />
<glyph unicode="A" horiz-adv-x="1290" d="M-39 0l774 1413h113l272 -1413h-151l-60 307h-624l-162 -307h-162zM358 442h533l-131 758z" />
<glyph unicode="B" horiz-adv-x="1220" d="M111 0l249 1413h375q85 0 161.5 -27t132.5 -76q57 -48 83 -122q17 -46 16 -97q0 -31 -6 -63q-29 -171 -235 -291q103 -43 158 -141q39 -69 39 -151q0 -34 -7 -70q-20 -113 -101 -200.5t-188.5 -131t-220.5 -43.5h-456zM276 133h312q120 0 223.5 77t124.5 196q5 28 5 52 q0 82 -55 130q-72 64 -194 63h-323zM391 786h230q131 0 229 63.5t119 180.5q4 25 4 48q0 83 -56 136q-72 68 -194 68h-244z" />
<glyph unicode="C" horiz-adv-x="1443" d="M148 486q0 13 -1 25q0 98 17 206q26 150 86.5 278.5t152 228t222.5 156t286 56.5q197 0 327 -97.5t177 -281.5l-137 -45q-8 78 -41 135.5t-84.5 91t-114.5 49t-139 15.5q-124 0 -228.5 -48.5t-177 -132.5t-120 -189t-68.5 -226q-15 -81 -16 -155v-11q-1 -68 11 -130 q12 -67 42.5 -121t75 -94t111 -61.5t149.5 -21.5q325 0 491 303l127 -68q-109 -181 -270.5 -274.5t-355.5 -93.5q-127 0 -225.5 38t-160 105.5t-98 160t-38.5 202.5z" />
<glyph unicode="D" horiz-adv-x="1398" d="M92 0l250 1413h350q343 0 494 -187q108 -133 107 -351q0 -88 -17 -189q-60 -332 -274 -509t-553 -177h-357zM262 133h178q127 0 239 35.5t205.5 105.5t159 183.5t91.5 259.5q14 81 14 151q1 168 -81 271q-116 145 -396 145h-209z" />
<glyph unicode="E" horiz-adv-x="1269" d="M106 0l250 1413h912l-21 -125h-768l-94 -520h659l-22 -123h-660l-88 -514h768l-24 -131h-912z" />
<glyph unicode="F" horiz-adv-x="1146" d="M106 0l250 1413h891l-20 -125h-748l-94 -520h659l-22 -123h-660l-112 -645h-144z" />
<glyph unicode="G" horiz-adv-x="1533" d="M148 486q-1 12 -1 25q0 98 17 206q26 150 86.5 278.5t152 228t222.5 156t286 56.5q197 0 327.5 -97.5t176.5 -281.5l-139 -45q-40 139 -135.5 211.5t-241.5 72.5q-125 0 -229.5 -47.5t-176.5 -130t-119.5 -186.5t-68.5 -225q-15 -81 -16 -155v-10q0 -68 11 -130 q13 -66 43 -119.5t75 -93t111.5 -61t150.5 -21.5q191 0 346.5 130.5t198.5 352.5l-326 -6l21 115h456l-123 -709h-123l48 264q-78 -131 -206.5 -207.5t-301.5 -76.5q-127 0 -225.5 38t-160 105.5t-98 160t-38.5 202.5z" />
<glyph unicode="H" horiz-adv-x="1433" d="M106 0l250 1413h144l-115 -645h727l117 645h143l-250 -1413h-143l113 645h-730l-112 -645h-144z" />
<glyph unicode="I" horiz-adv-x="534" d="M92 0l250 1413h145l-249 -1413h-146z" />
<glyph unicode="J" horiz-adv-x="1046" d="M2 393l141 13q-2 -25 -2 -48q0 -33 5 -64q8 -51 32 -94.5t72 -68.5t115 -25q84 0 147 29.5t103.5 84.5t65 119.5t40.5 149.5l139 799h-532l22 125h678l-166 -921q-88 -512 -504 -512q-126 0 -212.5 57t-121.5 149q-26 68 -26 147q0 29 4 60z" />
<glyph unicode="K" horiz-adv-x="1382" d="M106 0l250 1413h144l-152 -842l938 842h191l-625 -553l371 -860h-170l-316 758l-415 -367l-72 -391h-144z" />
<glyph unicode="L" horiz-adv-x="1048" d="M106 0l250 1413h144l-226 -1282h605l-25 -131h-748z" />
<glyph unicode="M" horiz-adv-x="1738" d="M102 0l250 1413h248l211 -1153l614 1153h252l-250 -1413h-147l231 1307l-637 -1184h-169l-222 1184l-231 -1307h-150z" />
<glyph unicode="N" horiz-adv-x="1390" d="M102 0l250 1413h217l392 -1261l225 1261h147l-250 -1413h-219l-387 1262l-225 -1262h-150z" />
<glyph unicode="O" d="M145 524v24q0 82 17 169q26 150 86 277.5t151.5 227t222 156t285.5 56.5q106 0 192.5 -27t146.5 -75.5t102.5 -116t60.5 -149.5t21 -176v-25q0 -82 -17 -169q-28 -150 -88.5 -277.5t-151.5 -226.5t-221.5 -155.5t-285.5 -56.5q-106 0 -192.5 26.5t-146 75t-102 116.5 t-60 150t-20.5 176zM284 547q0 -3 1 -5q0 -68 12 -132q13 -66 42.5 -119t74.5 -93t112 -61.5t150 -21.5q101 0 189.5 32.5t155.5 88.5t119.5 133t85.5 164.5t50 183.5q14 78 14 149t-12.5 137t-42.5 119t-75 93t-111.5 61.5t-149.5 21.5q-126 0 -232 -49t-179 -134 t-121 -191.5t-68 -227.5q-15 -78 -15 -149z" />
<glyph unicode="P" horiz-adv-x="1118" d="M102 0l250 1413h387q205 -1 309 -107q78 -81 78 -207q0 -40 -8 -85q-30 -177 -166 -274t-342 -97h-250l-112 -643h-146zM385 770h242q144 0 236.5 68.5t115.5 197.5q5 28 5 52q0 82 -51 132q-66 64 -210 64h-248z" />
<glyph unicode="Q" d="M145 524v24q0 82 17 169q26 150 86 277.5t151.5 227t222 156t285.5 56.5q106 0 192.5 -27t146.5 -75.5t102.5 -116t60.5 -149.5t21 -176v-25q0 -82 -17 -169q-53 -311 -246 -510l160 -194l-100 -88l-160 192q-166 -116 -401 -116q-106 0 -192.5 26.5t-146 75t-102 116.5 t-60 150t-20.5 176zM288 546v-5q0 -69 12 -132q12 -66 41.5 -120t73.5 -94t110 -62t149 -22q163 0 309 90l-164 205l101 90l161 -201q145 165 191 422q14 78 14 149q1 3 1 6q0 69 -12 132q-12 67 -41.5 120.5t-74 94t-111 62.5t-149.5 22q-125 0 -230.5 -50t-177.5 -136 t-119.5 -192.5t-68.5 -228.5q-14 -78 -15 -150z" />
<glyph unicode="R" horiz-adv-x="1196" d="M106 -2l248 1413h396q188 1 294 -109q82 -85 81 -214q0 -38 -7 -80q-25 -135 -122.5 -230.5t-241.5 -124.5l260 -655h-164l-256 637h-232l-112 -637h-144zM387 772h275q121 8 209.5 76.5t109.5 185.5q5 27 5 51q0 82 -53 132q-68 65 -196 65h-260z" />
<glyph unicode="S" horiz-adv-x="1118" d="M57 358l140 33q-1 -11 0 -22q1 -56 17 -102q20 -54 61 -86.5t95 -49t119 -16.5q135 0 229 69.5t118 202.5q5 25 5 48q0 31 -9 59q-15 48 -48.5 81.5t-79 62t-98 53t-104 49.5t-97 57t-78.5 70.5t-47 94.5q-7 30 -7 63q0 30 6 62q29 155 151.5 251t278.5 96 q267 0 352 -222l-115 -65q-30 81 -93.5 121.5t-147.5 40.5q-99 0 -184 -62.5t-103 -161.5q-4 -22 -4 -43q0 -32 10 -60q16 -46 49.5 -77t80 -59.5t98.5 -50.5t104 -50.5t97.5 -58.5t77.5 -74q33 -45 45 -100q6 -27 6 -59q0 -34 -7 -74q-32 -180 -170 -287.5t-324 -107.5 q-89 0 -166 24t-136 70t-92 118q-30 66 -30 147v15z" />
<glyph unicode="T" horiz-adv-x="1159" d="M150 1294l22 119h1110l-20 -119h-484l-229 -1294h-143l227 1294h-483z" />
<glyph unicode="U" horiz-adv-x="1333" d="M180 594l146 819h145l-149 -840q-17 -84 -18 -157q0 -14 2 -26q4 -84 28 -144.5t85 -94.5t156 -34q348 0 431 469l147 827h145l-145 -819q-50 -286 -195.5 -450t-392.5 -164q-102 0 -179.5 30.5t-124 85t-72.5 130.5q-26 75 -26 166q0 93 17 202z" />
<glyph unicode="V" horiz-adv-x="1257" d="M186 1413h146l225 -1231l657 1231h156l-776 -1413h-129z" />
<glyph unicode="W" horiz-adv-x="1884" d="M186 1413h146l121 -1243l553 1120h118l160 -1120l559 1243h154l-645 -1413h-164l-160 1053l-532 -1053h-164z" />
<glyph unicode="X" horiz-adv-x="1222" d="M-39 0l592 707l-336 706h168l264 -594l479 594h177l-590 -706l338 -707h-168l-273 584l-475 -584h-176z" />
<glyph unicode="Y" horiz-adv-x="1251" d="M174 1413h164l305 -711l561 711h172l-680 -860l-100 -553h-145l100 553z" />
<glyph unicode="Z" horiz-adv-x="1306" d="M2 0l18 119l1117 1169h-863l23 125h1038l-18 -125l-1112 -1155h905l-25 -133h-1083z" />
<glyph unicode="[" horiz-adv-x="720" d="M31 -436l348 1972h350l-12 -80h-236l-321 -1810h235l-14 -82h-350z" />
<glyph unicode="\" horiz-adv-x="942" d="M190 1516h140l407 -1946h-139z" />
<glyph unicode="]" horiz-adv-x="720" d="M-20 -436l14 82h235l322 1810h-236l13 80h350l-348 -1972h-350z" />
<glyph unicode="^" horiz-adv-x="1183" d="M285 846l454 571l252 -571h-141l-148 340l-270 -340h-147z" />
<glyph unicode="_" horiz-adv-x="993" d="M-8 -102l18 102h768l-18 -102h-768z" />
<glyph unicode="a" horiz-adv-x="1064" d="M59 283q25 147 130.5 216.5t271.5 69.5l321 4q12 65 12 116q0 78 -26 126q-44 80 -186 80q-88 0 -167 -42t-134 -105l-93 83q89 95 186.5 140t221.5 45q182 0 264 -109q58 -78 59 -195q0 -47 -10 -100l-106 -612h-115l25 178q-84 -103 -177 -150.5t-214 -47.5 q-134 0 -210 84q-58 64 -59 158q0 29 6 61zM197 260q-3 -19 -4 -36q1 -22 7 -40q10 -32 36.5 -48.5t58.5 -24t72 -7.5q141 0 256.5 110t138.5 245l-301 -6q-97 0 -172 -51t-92 -142z" />
<glyph unicode="b" horiz-adv-x="1198" d="M115 0l250 1413h133l-99 -551q133 160 336 160q96 0 167 -42t107.5 -114t48.5 -169q4 -33 3 -68q0 -67 -14 -140q-38 -222 -166.5 -365.5t-311.5 -143.5q-208 0 -293 167l-28 -147h-133zM312 340q6 -70 28.5 -124t73.5 -86t125 -32q148 0 246 118t130 292q11 55 11 107 q0 21 -2 42q-6 71 -29.5 126t-75 87.5t-125.5 32.5q-76 0 -140.5 -34.5t-110 -93.5t-76 -131t-45.5 -155q-12 -57 -12 -109q0 -21 2 -40z" />
<glyph unicode="c" horiz-adv-x="1040" d="M106 346q0 8 -1 16q0 70 12 146q18 103 60 193t104.5 161t151.5 112.5t192 41.5q133 0 221 -70t121 -194l-133 -43q-9 90 -67.5 141t-148.5 51q-78 0 -144 -37.5t-109.5 -99t-72 -132t-40.5 -145.5q-8 -47 -10 -93q0 -10 -1 -20q0 -35 4 -70q5 -45 20.5 -82t40.5 -66 t65 -45.5t92 -16.5q94 0 173.5 56t119.5 147l110 -61q-64 -125 -169.5 -190.5t-237.5 -65.5q-85 0 -152 28t-108 77t-66 116t-27 145z" />
<glyph unicode="d" horiz-adv-x="1187" d="M110 242q-12 58 -12 123q0 68 13 145q38 222 167 366t312 144q204 0 293 -168l100 561h137l-250 -1413h-137l27 137q-130 -157 -336 -157q-127 0 -208 72t-106 190zM234 342q6 -70 29.5 -123t75.5 -84t126 -31q75 0 139 33t109 89.5t75.5 128t45.5 153.5q12 58 12 111 q0 19 -2 37q-6 70 -28.5 122t-73 82.5t-124.5 30.5q-76 0 -140.5 -32t-110.5 -88.5t-77 -127.5t-46 -154q-12 -57 -11 -109q-1 -19 1 -38z" />
<glyph unicode="e" horiz-adv-x="1048" d="M90 344q0 12 -1 24q0 65 11 136q17 102 59 192.5t104.5 161.5t151.5 112.5t193 41.5q94 0 163 -29.5t107 -78.5q39 -50 58 -120q18 -67 18 -139v-8q-1 -77 -16 -166q-2 2 -6 -25h-699q-10 -47 -10 -90q0 -86 40 -152q59 -98 200 -98q189 0 313 111l82 -78 q-94 -83 -187 -117t-210 -34q-88 0 -158 27t-113.5 74.5t-70.5 113t-29 141.5zM252 563l575 10q8 45 8 85q0 84 -38 144q-56 86 -193 87q-138 0 -230 -93.5t-122 -232.5z" />
<glyph unicode="f" horiz-adv-x="710" d="M131 887l19 110h182l35 195q20 116 104 179t199 63q83 0 155 -37l-47 -105q-33 25 -92 25q-67 0 -121.5 -39t-66.5 -100l-31 -179h297l-21 -112h-297l-155 -887h-135l157 887h-182z" />
<glyph unicode="g" horiz-adv-x="1060" d="M-10 -145q3 18 8 36.5t9 30t9 22.5l4 11l209 76q-85 36 -123 103q-28 52 -28 95q0 13 2 25q17 109 156 231q-27 62 -27 130q0 31 6 63q29 151 143 242.5t263 91.5q104 0 178 -43l188 139l60 -100l-168 -115q45 -66 45 -152q0 -38 -9 -79q-24 -151 -135.5 -237.5 t-263.5 -86.5q-122 0 -207 57q-101 -78 -114 -151q-5 -25 3 -43t28.5 -29t43.5 -17.5t57 -9t60 -3.5t61.5 -1.5t53.5 -1.5q157 -5 219 -21q155 -38 161 -175v-9q0 -28 -5 -61q-14 -77 -52 -136.5t-88 -95.5t-114.5 -59.5t-123.5 -32t-122 -8.5q-64 0 -123 10t-113 34 t-91 59.5t-54 89.5q-10 33 -10 70q0 25 4 51zM115 -214q6 -20 24.5 -41t47.5 -37.5t79.5 -27t116.5 -10.5q46 0 95.5 8.5t107.5 29.5t100.5 65.5t54.5 107.5q6 34 0 59t-25.5 40t-39.5 24t-56 13t-60.5 5t-65.5 1q-99 0 -148 2l-229 -158q-3 -2 -6 -13q-3 -10 -3 -25 q0 -20 7 -43zM350 659q-4 -23 -4 -43q0 -64 36 -108q46 -57 136 -57q97 0 170 64t92 165q6 27 6 52q0 60 -33 102q-46 61 -139 61q-98 0 -172.5 -67t-91.5 -169z" />
<glyph unicode="h" horiz-adv-x="1144" d="M98 0l250 1413h135l-104 -579q60 81 156 130.5t192 49.5q72 0 126.5 -21.5t86.5 -59t50 -88.5q18 -50 19 -107q0 -59 -10 -128l-106 -610h-137l106 598q10 56 10 102q0 187 -170 187q-131 0 -243 -103t-131 -239l-95 -545h-135z" />
<glyph unicode="i" horiz-adv-x="544" d="M102 0l177 999h137l-176 -999h-138zM305 1227l35 186h162l-33 -186h-164z" />
<glyph unicode="j" horiz-adv-x="534" d="M-227 -408l41 97q39 -13 108 -13q63 0 100.5 43t49.5 103l207 1177h137l-205 -1163q-24 -130 -96 -202t-195 -72q-33 0 -69.5 7.5t-56.5 14.5zM305 1233l29 180h164l-31 -180h-162z" />
<glyph unicode="k" horiz-adv-x="1091" d="M102 0l250 1413h137l-174 -969l555 555h174l-387 -368l273 -631h-154l-215 539l-268 -246l-53 -293h-138z" />
<glyph unicode="l" horiz-adv-x="567" d="M126 115q1 28 3.5 45.5t7.5 48.5l213 1204h137l-221 -1247q-4 -25 -4 -30q2 -38 31 -38q24 0 50.5 3t40.5 7l15 3l-14 -105q-55 -26 -123 -26q-33 0 -58 7.5t-40 17.5t-23.5 30t-12.5 36q-3 12 -2 32v12z" />
<glyph unicode="m" horiz-adv-x="1734" d="M100 0l176 999h138l-33 -174q46 87 128 140t175 53q111 0 184 -55t95 -154q125 207 335 207q74 0 130.5 -22t89 -60t51.5 -90t19 -112t-9 -126l-106 -606h-138l107 600q10 44 10 88v19q-2 54 -16 97.5t-53.5 71t-100.5 27.5q-82 0 -154 -50t-116 -126t-60 -162l-98 -565 h-137l106 604q10 45 10 91v15q-2 54 -15 96.5t-52 69.5t-100 27q-82 0 -154 -50t-116 -126t-60 -162l-98 -565h-138z" />
<glyph unicode="n" horiz-adv-x="1142" d="M98 0l176 999h136l-31 -161q61 80 153.5 129t188.5 49q74 0 129.5 -22t87.5 -60t50 -90q18 -51 19 -109q0 -59 -10 -129l-106 -606h-135l104 600q11 44 11 87q-1 8 -1 17q-2 51 -16 91.5t-53.5 65t-100.5 24.5q-127 0 -235 -96t-131 -226l-101 -563h-135z" />
<glyph unicode="o" horiz-adv-x="1167" d="M104 506q37 214 191.5 360t355.5 146q137 0 234.5 -71t136.5 -191q24 -73 24 -156q0 -53 -10 -109q-39 -214 -194.5 -359.5t-356.5 -145.5q-137 0 -233.5 70.5t-134.5 190.5q-23 72 -23 154q0 53 10 111zM244 368v-10q0 -51 15 -95q16 -49 44 -85.5t77 -57t114 -20.5 q82 0 150.5 33t116 90.5t78.5 128.5t46 154q11 51 11 100q0 23 -2 45q-8 70 -32 123t-79.5 85t-135.5 32q-83 0 -152 -33t-116.5 -90.5t-78 -129t-44.5 -153.5q-10 -61 -12 -117z" />
<glyph unicode="p" horiz-adv-x="1169" d="M25 -438l254 1437h137l-29 -137q134 158 338 158q126 0 207 -72t106 -191q13 -59 13 -125q0 -68 -13 -143q-40 -222 -169 -365.5t-312 -143.5q-209 0 -291 167l-104 -585h-137zM302 340q6 -70 28 -124t72.5 -86t123.5 -32q76 0 141.5 33.5t112 91.5t77.5 130t46 155 q12 57 12 109q0 20 -2 39q-6 71 -29.5 125t-74.5 86t-125 32q-61 0 -115.5 -22.5t-95.5 -60.5t-73.5 -90.5t-53.5 -111.5t-33 -125q-12 -58 -12 -112q0 -18 1 -37z" />
<glyph unicode="q" horiz-adv-x="1191" d="M113 302q-4 35 -4 70q0 66 14 138q38 222 166.5 366t312.5 144q205 0 291 -168l29 147h137l-254 -1437h-137l104 575q-134 -157 -338 -157q-96 0 -166.5 41.5t-106.5 113t-48 167.5zM244 340q7 -70 30 -124t75 -86t126 -32q76 0 140.5 33.5t109.5 92t75.5 130.5t45.5 154 q12 57 12 109q0 20 -2 39q-6 71 -28.5 125t-73 86t-123.5 32q-148 0 -246.5 -118t-130.5 -292q-11 -55 -11 -107q0 -21 1 -42z" />
<glyph unicode="r" horiz-adv-x="714" d="M74 0l176 999h141l-37 -194q41 95 134 152t184 57q45 0 91.5 -13t74.5 -36l-58 -107q-46 41 -129 41q-88 0 -164.5 -66.5t-127 -175.5t-74.5 -245l-72 -412h-139z" />
<glyph unicode="s" horiz-adv-x="890" d="M33 227l123 54q12 -78 72 -128.5t143 -50.5q55 0 103.5 16.5t88.5 59t51 107.5q3 16 3 30q0 23 -8 43q-13 31 -41.5 48t-67 31.5t-82 23.5t-86.5 23.5t-80.5 32t-64 49t-36.5 74.5q-5 20 -5 46q0 28 6 62q20 114 121.5 190t222.5 76q116 0 190.5 -55t108.5 -140l-117 -59 q-42 127 -189 127q-79 0 -140.5 -43t-78.5 -121q-2 -10 -2 -20q0 -27 14 -47q20 -28 56.5 -41t84 -26.5t97.5 -24t95.5 -32.5t79 -52t47.5 -84q7 -28 7 -61q0 -30 -6 -65q-24 -131 -135 -210.5t-250 -79.5q-132 0 -220.5 72.5t-104.5 174.5z" />
<glyph unicode="t" horiz-adv-x="673" d="M125 887l20 112h152l39 224l164 133l-60 -357h254l-20 -112h-254l-113 -639q-6 -34 -6 -60q0 -36 12 -56q20 -34 68 -34q39 0 71 4t44 8l12 5l-16 -113q-48 -22 -130 -22q-124 0 -170 76q-31 52 -31 130q0 37 7 80l111 621h-154z" />
<glyph unicode="u" horiz-adv-x="1171" d="M136 277q1 64 11 133l105 589h135l-106 -606q-10 -59 -10 -106q0 -195 163 -195q126 0 238.5 103.5t136.5 234.5l100 569h135l-176 -999h-135l31 170q-43 -71 -139.5 -132t-204.5 -61q-74 0 -129 23t-87 63.5t-50 94.5q-18 52 -18 112v7z" />
<glyph unicode="v" horiz-adv-x="931" d="M113 999h145l135 -821l426 821h152l-543 -999h-125z" />
<glyph unicode="w" horiz-adv-x="1421" d="M135 999h144l59 -825l381 825h127l90 -823l356 823h146l-453 -999h-133l-94 829l-387 -827h-135z" />
<glyph unicode="x" horiz-adv-x="913" d="M-51 0l424 504l-244 495h162l168 -378l307 378h168l-422 -495l242 -504h-160l-168 385l-307 -385h-170z" />
<glyph unicode="y" horiz-adv-x="974" d="M88 -430l242 434l-203 995h147l148 -833l436 833h156l-783 -1429h-143z" />
<glyph unicode="z" horiz-adv-x="931" d="M-23 0l17 106l756 781h-588l20 112h744l-19 -118l-741 -764h604l-20 -117h-773z" />
<glyph unicode="{" horiz-adv-x="778" d="M145 393l15 129q69 25 113.5 80.5t58.5 130.5l98 547q21 130 76.5 193t167.5 63h51q7 0 21 -1t22 -1l-6 -78q-46 4 -53 4q-58 0 -96 -27.5t-46 -74.5l-114 -649q-17 -91 -70.5 -152t-163.5 -115q83 -37 123 -87.5t27 -127.5l-84 -467q-36 -196 96 -196q23 0 41 6l-6 -80 q-16 -2 -43 -2h-74q-101 0 -133 102q-28 45 -4 177l84 466q17 106 -101 160z" />
<glyph unicode="|" horiz-adv-x="520" d="M18 -512l361 2046h98l-360 -2046h-99z" />
<glyph unicode="}" horiz-adv-x="778" d="M-14 -510l6 76q5 0 15.5 -1t15.5 -1q70 0 117 52.5t65 156.5l84 465q12 79 65 125t156 90q-89 52 -120.5 115t-16.5 151l114 649q15 92 -90 92q-11 0 -65 -8l6 82q16 2 41 2h53q112 0 148.5 -68.5t15.5 -197.5l-98 -547q-26 -158 90 -205l-15 -127q-58 -23 -104.5 -65.5 t-56.5 -102.5l-84 -469q-24 -127 -60 -180q-75 -86 -166 -86h-71q-7 0 -22 1t-23 1z" />
<glyph unicode="~" horiz-adv-x="954" d="M113 406q0 108 47 176.5t139 68.5q53 0 96 -18.5t72 -45t54.5 -53t56 -45t63.5 -18.5q107 0 107 174h96q0 -126 -54.5 -196t-154.5 -70q-44 0 -83 19t-68 46t-57 54t-60 46t-66 19q-55 0 -78.5 -44.5t-21.5 -112.5h-88z" />
<glyph unicode="&#xa1;" horiz-adv-x="528" d="M20 -436l216 1063h102l-158 -1063h-160zM229 817l33 182h184l-32 -182h-185z" />
<glyph unicode="&#xa2;" horiz-adv-x="1007" d="M101.5 263.5q-22.5 111.5 0.5 244.5q16 95 54 180t95 154.5t138 114.5t176 55l37 188h98l-36 -188q108 -12 186 -81t104 -177l-137 -47q-9 83 -66.5 129.5t-144.5 46.5q-77 0 -142 -35.5t-108.5 -94t-71.5 -126t-40 -140.5q-10 -56 -10.5 -107t11 -100.5t36 -86t69 -58.5 t105.5 -22q88 0 167.5 51.5t116.5 134.5l117 -63q-57 -110 -153 -175.5t-214 -76.5l-36 -189h-99l39 189q-120 14 -194.5 91t-97 188.5z" />
<glyph unicode="&#xa3;" horiz-adv-x="1024" d="M-88 0l16 84q11 9 30 24.5t69 62t90 91t77 102.5t46 105q5 34 6 79.5t0 73.5l-2 29l-215 -6l18 109h189l-3 15t-6 40.5t-5.5 60.5t0 71.5t7.5 78.5q29 171 151 290.5t296 119.5q130 0 213 -80.5t104 -204.5l-102 -25q-19 93 -75 147t-142 54q-130 0 -222 -91.5 t-118 -230.5q-8 -60 -5.5 -115.5t9.5 -94.5l6 -39l469 4l-16 -109h-447q8 -106 -8 -196q-9 -53 -37.5 -108t-63 -96t-67 -74t-54.5 -50l-22 -17l836 5l-19 -109h-1003z" />
<glyph unicode="&#xa4;" horiz-adv-x="1134" d="M37 1032l133 137l160 -219q106 82 237 82q136 0 238 -82l172 205l135 -137l-225 -146q76 -110 76 -243q0 -137 -76 -242l225 -176l-133 -137l-174 233q-106 -82 -238 -82q-131 0 -237 82l-146 -233l-133 137l197 176q-76 107 -76 242q0 134 76 241zM315 629 q0 -118 69.5 -193.5t182.5 -75.5t182.5 75.5t69.5 193.5t-69.5 193t-182.5 75t-182.5 -75t-69.5 -193z" />
<glyph unicode="&#xa5;" horiz-adv-x="1273" d="M172 1413h180l303 -694l557 694h189l-610 -758h235l-22 -133h-302l-36 -215h301l-25 -131h-299l-31 -170h-153l30 170h-301l25 131h299l37 215h-299l20 133h240z" />
<glyph unicode="&#xa6;" horiz-adv-x="522" d="M61 -307l127 727h91l-127 -727h-91zM244 731l131 744h90l-131 -744h-90z" />
<glyph unicode="&#xa7;" horiz-adv-x="876" d="M-2 268l119 27q27 -193 250 -193q47 0 89 8.5t83.5 27.5t70.5 58t39 93q7 39 -8.5 67t-47.5 44t-75 27t-91 21t-95.5 21.5t-88.5 32t-70.5 49.5t-41.5 77t0 111q9 59 46.5 114.5t96.5 94.5q-43 32 -61 86.5t-8 118.5q24 130 135.5 205.5t245.5 75.5q133 0 219.5 -70 t103.5 -195l-121 -20q-17 164 -210 164q-56 0 -108 -19t-94 -63.5t-54 -106.5q-7 -41 13.5 -69.5t60 -42t91 -26.5t106 -22.5t104.5 -30.5t87 -50t53 -82t3 -125q-20 -127 -138 -211q41 -31 58.5 -85t7.5 -118q-13 -73 -53.5 -129t-98.5 -88t-123 -47.5t-135 -15.5 q-152 0 -246 73t-114 213zM250 719q-6 -37 9 -66t41.5 -47t66.5 -32.5t74 -21.5t73 -15t55 -13q131 56 154 183q7 38 -7 68.5t-39 48t-64.5 32t-71.5 21t-73 14.5t-58 12q-63 -25 -105.5 -73t-54.5 -111z" />
<glyph unicode="&#xa9;" horiz-adv-x="1718" d="M113 707q0 205 100 379.5t271.5 276t373.5 101.5q204 0 376 -101.5t272 -275.5t100 -380q0 -123 -37.5 -239t-107 -209t-161 -163t-206 -108.5t-236.5 -38.5q-121 0 -234.5 38.5t-205 108.5t-161 163t-107 209t-37.5 239zM219 707q0 -173 87 -323t234.5 -238.5 t317.5 -88.5q171 0 318.5 88.5t234 238.5t86.5 323q0 130 -51.5 249.5t-137.5 207t-204 140t-246 52.5q-127 0 -245.5 -52.5t-204.5 -140t-137.5 -207.5t-51.5 -249zM528 705q0 113 38 201.5t118.5 143t192.5 54.5q98 0 178 -47.5t121 -132.5l-99 -45q-26 56 -80 86t-120 30 q-121 0 -181.5 -83.5t-60.5 -206.5q0 -58 13.5 -108.5t41 -92t75 -65t109.5 -23.5q66 0 120 29.5t81 86.5l101 -45q-39 -86 -119.5 -134t-179.5 -48q-112 0 -192.5 54.5t-118.5 143.5t-38 202z" />
<glyph unicode="&#xaa;" horiz-adv-x="800" d="M160 926q34 194 280 194l228 2q42 234 -136 234q-58 0 -114 -31t-94 -74l-68 58q113 125 279 125q130 0 189.5 -77.5t37.5 -207.5l-76 -426h-80l19 127q-60 -75 -124.5 -108t-150.5 -33q-97 0 -152.5 60t-37.5 157zM262 903q-9 -50 26.5 -81t86.5 -31q98 0 182 80t96 173 l-207 -4q-68 0 -121 -37t-63 -100z" />
<glyph unicode="&#xab;" horiz-adv-x="1026" d="M137 510l414 324l-21 -154l-229 -170l164 -168l-21 -154zM500 510l413 324l-20 -154l-229 -170l163 -168l-20 -154z" />
<glyph unicode="&#xac;" horiz-adv-x="1189" d="M152 676v121h866v-506h-125v385h-741z" />
<glyph unicode="&#xad;" horiz-adv-x="849" d="M104 590l19 102h645l-18 -102h-646z" />
<glyph unicode="&#xae;" horiz-adv-x="1718" d="M113 709q0 205 100 379.5t271.5 276t373.5 101.5q204 0 376 -101.5t272 -275.5t100 -380q0 -123 -37.5 -239t-107 -209t-161 -163t-206 -108.5t-236.5 -38.5q-121 0 -234.5 38.5t-205 108.5t-161 163t-107 209t-37.5 239zM213 709q0 -132 51.5 -253.5t138.5 -210 t206 -141.5t249 -53t250 53t207.5 141.5t139.5 210t52 253.5t-52 253.5t-139.5 210t-207.5 141t-250 52.5t-249 -52.5t-206 -141t-138.5 -210t-51.5 -253.5zM614 305v791h299q131 0 194.5 -59t63.5 -169q0 -96 -48.5 -150t-121.5 -67l201 -346h-127l-180 336h-168v-336h-113 zM715 741h198q156 0 156 127t-156 127h-198v-254z" />
<glyph unicode="&#xb0;" horiz-adv-x="831" d="M233 1151q22 119 116 201t208 82q120 0 190.5 -90t47.5 -214q-20 -118 -115 -200t-209 -82q-120 0 -190 89t-48 214zM311 1130q-13 -83 33.5 -141.5t126.5 -58.5q85 0 158 65.5t88 155.5q15 83 -30.5 142t-125.5 59q-86 0 -159.5 -65.5t-90.5 -156.5z" />
<glyph unicode="&#xb1;" horiz-adv-x="1241" d="M113 0h1015v-102h-1015v102zM113 573v103h456v467h103v-467h456v-103h-456v-467h-103v467h-456z" />
<glyph unicode="&#xb5;" horiz-adv-x="1153" d="M164 -266v1265h145v-598q0 -45 5.5 -85t20 -79.5t37.5 -67.5t61 -45.5t87 -17.5q123 0 213 96.5t90 223.5v573h146v-999h-146v180q-33 -77 -121 -140t-198 -63q-113 0 -193 54l-22 -297h-125z" />
<glyph unicode="&#xb6;" horiz-adv-x="1239" d="M160 1028q21 118 100.5 207.5t188 133.5t227.5 44h174l-250 -1413h-170l115 623q-88 0 -165 28t-132 78.5t-79.5 128.5t-8.5 170zM780 0l250 1413h172l-250 -1413h-172z" />
<glyph unicode="&#xb7;" horiz-adv-x="542" d="M197 840q6 45 44.5 76.5t86.5 31.5q54 0 84.5 -37.5t21.5 -93.5q-7 -47 -46 -78.5t-87 -31.5q-54 0 -84.5 38.5t-19.5 94.5z" />
<glyph unicode="&#xba;" horiz-adv-x="858" d="M186 1081q27 150 134.5 251.5t248.5 101.5q149 0 226 -107.5t49 -263.5q-25 -148 -133.5 -250t-249.5 -102q-148 0 -225 107t-50 263zM290.5 964.5q4.5 -47.5 21 -84t54.5 -58t93 -21.5q113 0 183 80.5t91 199.5q12 51 7.5 99t-20.5 85t-54 59t-93 22q-113 0 -183.5 -81 t-92.5 -202q-11 -51 -6.5 -98.5z" />
<glyph unicode="&#xbb;" horiz-adv-x="1026" d="M84 188l22 154l228 168l-164 170l20 154l308 -324zM446 188l23 154l227 168l-164 170l21 154l307 -324z" />
<glyph unicode="&#xbf;" horiz-adv-x="1032" d="M4 -68q12 67 39.5 119t63 83t76 55.5t80 43.5t73 39t57.5 50.5t31 70.5l41 238h125l-43 -248q-10 -57 -35.5 -99t-59.5 -67t-73 -45.5t-78.5 -41t-73.5 -46t-60 -69.5t-36 -103q-19 -113 44 -169t179 -56q118 0 210.5 69t113.5 187l131 -13q-30 -167 -157 -264.5 t-294 -99.5q-180 0 -283 97t-71 269zM467 817l31 182h184l-31 -182h-184z" />
<glyph unicode="&#xc0;" horiz-adv-x="1290" d="M-39 0l774 1413h113l272 -1413h-151l-60 307h-624l-162 -307h-162zM358 442h533l-131 758zM561 1827h156l162 -283h-134z" />
<glyph unicode="&#xc1;" horiz-adv-x="1290" d="M-39 0l774 1413h113l272 -1413h-151l-60 307h-624l-162 -307h-162zM358 442h533l-131 758zM731 1538l262 289h164l-313 -289h-113z" />
<glyph unicode="&#xc2;" horiz-adv-x="1290" d="M-39 0l774 1413h113l272 -1413h-151l-60 307h-624l-162 -307h-162zM358 442h533l-131 758zM477 1511l393 359l277 -359h-143l-152 205l-223 -205h-152z" />
<glyph unicode="&#xc3;" horiz-adv-x="1290" d="M-39 0l774 1413h113l272 -1413h-151l-60 307h-624l-162 -307h-162zM358 442h533l-131 758zM463 1614q18 104 72 165.5t141 61.5q57 0 100.5 -17.5t70 -42t48.5 -49t47.5 -42t56.5 -17.5q110 0 138 168l94 -12q-20 -122 -82.5 -184t-163.5 -62q-45 0 -83 17t-64.5 41 t-51 48t-53 41t-59.5 17q-55 0 -85.5 -41.5t-39.5 -101.5z" />
<glyph unicode="&#xc4;" horiz-adv-x="1290" d="M-39 0l774 1413h113l272 -1413h-151l-60 307h-624l-162 -307h-162zM358 442h533l-131 758zM588 1602l26 163h150l-27 -163h-149zM915 1602l27 163h150l-27 -163h-150z" />
<glyph unicode="&#xc5;" horiz-adv-x="1290" d="M-39 0l729 1333h-8q-83 0 -130 58.5t-32 142.5q12 75 74 126.5t137 51.5q81 0 130 -57.5t34 -141.5q-9 -56 -47 -100l272 -1413h-151l-60 307h-624l-162 -307h-162zM358 442h533l-131 758zM606 1511q-6 -39 16 -63.5t62 -24.5q43 0 80.5 33t44.5 78q6 38 -15 63t-61 25 q-48 0 -83 -30.5t-44 -80.5z" />
<glyph unicode="&#xc6;" horiz-adv-x="1806" d="M-66 0l777 1413h1120l-23 -131h-747l-92 -510h659l-22 -131h-660l-88 -504h748l-25 -137h-899l53 307h-467l-164 -307h-170zM346 449h416l147 833h-112z" />
<glyph unicode="&#xc7;" horiz-adv-x="1443" d="M146.5 527q-1.5 92 17.5 190q26 150 86.5 278.5t152 228t222.5 156t286 56.5q197 0 327 -97.5t177 -281.5l-137 -45q-8 78 -41 135.5t-84.5 91t-114.5 49t-139 15.5q-124 0 -228.5 -48.5t-177 -132.5t-120 -189t-68.5 -226q-15 -81 -16 -155t11.5 -141t42.5 -121 t74.5 -94t111 -61.5t149.5 -21.5q325 0 491 303l127 -68q-99 -164 -241.5 -256.5t-313.5 -107.5l-98 -117q95 -28 135.5 -70.5t28.5 -107.5q-13 -80 -77.5 -134.5t-135.5 -54.5q-64 0 -107.5 36t-54.5 89l86 35q2 -29 22 -49.5t52 -20.5q41 0 79.5 32t45.5 77q8 61 -76 88 l-113 37l109 156q-100 4 -181.5 33t-138 78t-96.5 116t-56.5 147.5t-18 172.5z" />
<glyph unicode="&#xc8;" horiz-adv-x="1269" d="M106 0l250 1413h912l-21 -125h-768l-94 -520h659l-22 -123h-660l-88 -514h768l-24 -131h-912zM551 1827h156l161 -283h-133z" />
<glyph unicode="&#xc9;" horiz-adv-x="1269" d="M106 0l250 1413h912l-21 -125h-768l-94 -520h659l-22 -123h-660l-88 -514h768l-24 -131h-912zM721 1538l262 289h164l-313 -289h-113z" />
<glyph unicode="&#xca;" horiz-adv-x="1269" d="M106 0l250 1413h912l-21 -125h-768l-94 -520h659l-22 -123h-660l-88 -514h768l-24 -131h-912zM467 1511l393 359l277 -359h-144l-151 205l-224 -205h-151z" />
<glyph unicode="&#xcb;" horiz-adv-x="1269" d="M106 0l250 1413h912l-21 -125h-768l-94 -520h659l-22 -123h-660l-88 -514h768l-24 -131h-912zM580 1602l26 163h150l-27 -163h-149zM907 1602l27 163h149l-26 -163h-150z" />
<glyph unicode="&#xcc;" horiz-adv-x="534" d="M92 0l250 1413h145l-249 -1413h-146zM182 1827h156l162 -283h-133z" />
<glyph unicode="&#xcd;" horiz-adv-x="534" d="M92 0l250 1413h145l-249 -1413h-146zM352 1538l262 289h164l-313 -289h-113z" />
<glyph unicode="&#xce;" horiz-adv-x="534" d="M92 0l250 1413h145l-249 -1413h-146zM98 1511l394 359l276 -359h-143l-152 205l-223 -205h-152z" />
<glyph unicode="&#xcf;" horiz-adv-x="534" d="M92 0l250 1413h145l-249 -1413h-146zM211 1602l27 163h149l-27 -163h-149zM539 1602l26 163h150l-27 -163h-149z" />
<glyph unicode="&#xd0;" horiz-adv-x="1394" d="M92 0l117 662h-113l19 102h112l115 649h354q343 0 492 -187t88 -540q-60 -332 -272 -509t-551 -177h-361zM268 137h176q100 0 191 21.5t172 67t144.5 113t109.5 164t67 214.5q96 561 -452 561h-207l-90 -514h422l-19 -102h-422z" />
<glyph unicode="&#xd1;" horiz-adv-x="1390" d="M102 0l250 1413h217l392 -1261l225 1261h147l-250 -1413h-219l-387 1262l-225 -1262h-150zM514 1614q18 104 72 165.5t141 61.5q57 0 101 -17.5t70 -42t48 -49t48 -42t57 -17.5q60 0 92 44t45 124l94 -12q-20 -122 -83 -184t-163 -62q-45 0 -83 17t-64.5 41t-51 48 t-53 41t-59.5 17q-55 0 -85.5 -41.5t-39.5 -101.5z" />
<glyph unicode="&#xd2;" d="M145 523.5q-3 93.5 17 193.5q26 150 86 277.5t151.5 227t222 156t285.5 56.5q106 0 192.5 -27t146.5 -75.5t102.5 -116t60.5 -149.5t21 -176t-17 -194q-28 -150 -88.5 -277.5t-151.5 -226.5t-221.5 -155.5t-285.5 -56.5q-106 0 -192.5 26.5t-146 75t-102 116.5t-60 150 t-20.5 175.5zM284.5 547q-0.5 -71 12.5 -137t42.5 -119t74.5 -93t112 -61.5t150 -21.5q101 0 189.5 32.5t155.5 88.5t119.5 133t85.5 164.5t50 183.5q14 78 14 149t-12.5 137t-42.5 119t-75 93t-111.5 61.5t-149.5 21.5q-126 0 -232 -49t-179 -134t-121 -191.5t-68 -227.5 q-14 -78 -14.5 -149zM680 1827h156l161 -283h-133z" />
<glyph unicode="&#xd3;" d="M145 523.5q-3 93.5 17 193.5q26 150 86 277.5t151.5 227t222 156t285.5 56.5q106 0 192.5 -27t146.5 -75.5t102.5 -116t60.5 -149.5t21 -176t-17 -194q-28 -150 -88.5 -277.5t-151.5 -226.5t-221.5 -155.5t-285.5 -56.5q-106 0 -192.5 26.5t-146 75t-102 116.5t-60 150 t-20.5 175.5zM284.5 547q-0.5 -71 12.5 -137t42.5 -119t74.5 -93t112 -61.5t150 -21.5q101 0 189.5 32.5t155.5 88.5t119.5 133t85.5 164.5t50 183.5q14 78 14 149t-12.5 137t-42.5 119t-75 93t-111.5 61.5t-149.5 21.5q-126 0 -232 -49t-179 -134t-121 -191.5t-68 -227.5 q-14 -78 -14.5 -149zM850 1538l262 289h164l-313 -289h-113z" />
<glyph unicode="&#xd4;" d="M145 523.5q-3 93.5 17 193.5q26 150 86 277.5t151.5 227t222 156t285.5 56.5q106 0 192.5 -27t146.5 -75.5t102.5 -116t60.5 -149.5t21 -176t-17 -194q-28 -150 -88.5 -277.5t-151.5 -226.5t-221.5 -155.5t-285.5 -56.5q-106 0 -192.5 26.5t-146 75t-102 116.5t-60 150 t-20.5 175.5zM284.5 547q-0.5 -71 12.5 -137t42.5 -119t74.5 -93t112 -61.5t150 -21.5q101 0 189.5 32.5t155.5 88.5t119.5 133t85.5 164.5t50 183.5q14 78 14 149t-12.5 137t-42.5 119t-75 93t-111.5 61.5t-149.5 21.5q-126 0 -232 -49t-179 -134t-121 -191.5t-68 -227.5 q-14 -78 -14.5 -149zM596 1511l393 359l277 -359h-144l-151 205l-223 -205h-152z" />
<glyph unicode="&#xd5;" d="M145 523.5q-3 93.5 17 193.5q26 150 86 277.5t151.5 227t222 156t285.5 56.5q106 0 192.5 -27t146.5 -75.5t102.5 -116t60.5 -149.5t21 -176t-17 -194q-28 -150 -88.5 -277.5t-151.5 -226.5t-221.5 -155.5t-285.5 -56.5q-106 0 -192.5 26.5t-146 75t-102 116.5t-60 150 t-20.5 175.5zM284.5 547q-0.5 -71 12.5 -137t42.5 -119t74.5 -93t112 -61.5t150 -21.5q101 0 189.5 32.5t155.5 88.5t119.5 133t85.5 164.5t50 183.5q14 78 14 149t-12.5 137t-42.5 119t-75 93t-111.5 61.5t-149.5 21.5q-126 0 -232 -49t-179 -134t-121 -191.5t-68 -227.5 q-14 -78 -14.5 -149zM582 1614q18 104 72 165.5t141 61.5q57 0 100.5 -17.5t70 -42t48.5 -49t47.5 -42t56.5 -17.5q60 0 92 44t45 124l95 -12q-20 -122 -83 -184t-163 -62q-45 0 -83 17t-64.5 41t-51 48t-53 41t-59.5 17q-55 0 -85.5 -41.5t-39.5 -101.5z" />
<glyph unicode="&#xd6;" d="M145 523.5q-3 93.5 17 193.5q26 150 86 277.5t151.5 227t222 156t285.5 56.5q106 0 192.5 -27t146.5 -75.5t102.5 -116t60.5 -149.5t21 -176t-17 -194q-28 -150 -88.5 -277.5t-151.5 -226.5t-221.5 -155.5t-285.5 -56.5q-106 0 -192.5 26.5t-146 75t-102 116.5t-60 150 t-20.5 175.5zM284.5 547q-0.5 -71 12.5 -137t42.5 -119t74.5 -93t112 -61.5t150 -21.5q101 0 189.5 32.5t155.5 88.5t119.5 133t85.5 164.5t50 183.5q14 78 14 149t-12.5 137t-42.5 119t-75 93t-111.5 61.5t-149.5 21.5q-126 0 -232 -49t-179 -134t-121 -191.5t-68 -227.5 q-14 -78 -14.5 -149zM709 1602l26 163h150l-27 -163h-149zM1036 1602l27 163h149l-26 -163h-150z" />
<glyph unicode="&#xd7;" horiz-adv-x="1241" d="M219 954l72 72l330 -330l323 324l72 -72l-324 -323l330 -330l-72 -72l-329 330l-324 -324l-72 72l324 324z" />
<glyph unicode="&#xd8;" d="M161.5 367q-34.5 164 0.5 350q26 150 86 277.5t151.5 227t222 156t285.5 56.5q185 0 312 -84l47 63h84l-78 -104q105 -97 139.5 -258t1.5 -355q-28 -150 -88.5 -277.5t-151.5 -226.5t-221.5 -155.5t-285.5 -56.5q-189 0 -314 83l-47 -63h-84l78 106q-103 97 -137.5 261z M293.5 430q21.5 -128 93.5 -207l748 1012q-91 63 -236 63q-126 0 -232 -49t-179 -134t-121 -191.5t-68 -227.5q-27 -138 -5.5 -266zM438 180q94 -65 238 -65q101 0 189.5 32.5t155.5 88.5t119.5 133t85.5 164.5t50 183.5q28 138 6 267t-96 208z" />
<glyph unicode="&#xd9;" horiz-adv-x="1333" d="M163.5 395.5q0.5 92.5 16.5 198.5l146 819h145l-149 -840q-20 -99 -16.5 -182.5t28 -144.5t85.5 -95t156 -34q348 0 431 469l147 827h145l-145 -819q-50 -286 -195.5 -450t-392.5 -164q-102 0 -179.5 30.5t-124 85t-72.5 131t-25.5 169zM582 1827h155l162 -283h-133z" />
<glyph unicode="&#xda;" horiz-adv-x="1333" d="M163.5 395.5q0.5 92.5 16.5 198.5l146 819h145l-149 -840q-20 -99 -16.5 -182.5t28 -144.5t85.5 -95t156 -34q348 0 431 469l147 827h145l-145 -819q-50 -286 -195.5 -450t-392.5 -164q-102 0 -179.5 30.5t-124 85t-72.5 131t-25.5 169zM752 1538l262 289h164l-314 -289 h-112z" />
<glyph unicode="&#xdb;" horiz-adv-x="1333" d="M163.5 395.5q0.5 92.5 16.5 198.5l146 819h145l-149 -840q-20 -99 -16.5 -182.5t28 -144.5t85.5 -95t156 -34q348 0 431 469l147 827h145l-145 -819q-50 -286 -195.5 -450t-392.5 -164q-102 0 -179.5 30.5t-124 85t-72.5 131t-25.5 169zM498 1511l393 359l276 -359h-143 l-152 205l-223 -205h-151z" />
<glyph unicode="&#xdc;" horiz-adv-x="1333" d="M163.5 395.5q0.5 92.5 16.5 198.5l146 819h145l-149 -840q-20 -99 -16.5 -182.5t28 -144.5t85.5 -95t156 -34q348 0 431 469l147 827h145l-145 -819q-50 -286 -195.5 -450t-392.5 -164q-102 0 -179.5 30.5t-124 85t-72.5 131t-25.5 169zM610 1602l27 163h149l-26 -163 h-150zM938 1602l27 163h149l-27 -163h-149z" />
<glyph unicode="&#xdd;" horiz-adv-x="1251" d="M174 1413h164l305 -711l561 711h172l-680 -860l-100 -553h-145l100 553zM711 1538l262 289h164l-314 -289h-112z" />
<glyph unicode="&#xde;" horiz-adv-x="1116" d="M102 0l250 1413h150l-37 -203h237q205 0 309.5 -107t71.5 -292q-30 -179 -166 -276t-342 -97h-245l-78 -438h-150zM352 573h238q144 0 235 65.5t113 188.5q20 116 -45 178t-207 62h-246z" />
<glyph unicode="&#xdf;" horiz-adv-x="1054" d="M49 0l189 1067q30 172 157 269.5t299 97.5q97 0 180.5 -41t130.5 -121.5t29 -181.5q-9 -53 -40 -93t-69.5 -64.5t-76.5 -47.5t-67 -54.5t-36 -72.5q-5 -30 7 -58.5t36 -51t53.5 -49.5t57.5 -54t50 -64.5t31 -81.5t-1 -104q-23 -137 -132.5 -225t-250.5 -88 q-126 0 -272 73l75 129q100 -63 207 -63q73 0 133.5 52t73.5 128q8 43 -1 81.5t-29.5 69t-47 60l-53 59t-47 60.5t-30 70t-1.5 83q9 44 38 79t64.5 59t71.5 48.5t65 62t38 85.5q14 84 -33.5 136.5t-155.5 52.5q-117 0 -195.5 -70.5t-99.5 -181.5l-186 -1055h-162z" />
<glyph unicode="&#xe0;" horiz-adv-x="1064" d="M59 283q25 147 130.5 216.5t271.5 69.5l321 4q29 162 -14.5 242t-185.5 80q-88 0 -167 -42t-134 -105l-93 83q89 95 186.5 140t221.5 45q182 0 264 -109t49 -295l-106 -612h-115l25 178q-84 -103 -177 -150.5t-214 -47.5q-134 0 -210.5 84.5t-52.5 218.5zM197 260 q-8 -44 2.5 -76t37 -48.5t58.5 -24t72 -7.5q141 0 256.5 110t138.5 245l-301 -6q-97 0 -172 -51t-92 -142zM375 1413h155l162 -283h-133z" />
<glyph unicode="&#xe1;" horiz-adv-x="1064" d="M59 283q25 147 130.5 216.5t271.5 69.5l321 4q29 162 -14.5 242t-185.5 80q-88 0 -167 -42t-134 -105l-93 83q89 95 186.5 140t221.5 45q182 0 264 -109t49 -295l-106 -612h-115l25 178q-84 -103 -177 -150.5t-214 -47.5q-134 0 -210.5 84.5t-52.5 218.5zM197 260 q-8 -44 2.5 -76t37 -48.5t58.5 -24t72 -7.5q141 0 256.5 110t138.5 245l-301 -6q-97 0 -172 -51t-92 -142zM545 1124l262 289h164l-314 -289h-112z" />
<glyph unicode="&#xe2;" horiz-adv-x="1064" d="M59 283q25 147 130.5 216.5t271.5 69.5l321 4q29 162 -14.5 242t-185.5 80q-88 0 -167 -42t-134 -105l-93 83q89 95 186.5 140t221.5 45q182 0 264 -109t49 -295l-106 -612h-115l25 178q-84 -103 -177 -150.5t-214 -47.5q-134 0 -210.5 84.5t-52.5 218.5zM197 260 q-8 -44 2.5 -76t37 -48.5t58.5 -24t72 -7.5q141 0 256.5 110t138.5 245l-301 -6q-97 0 -172 -51t-92 -142zM291 1098l393 358l277 -358h-144l-151 205l-224 -205h-151z" />
<glyph unicode="&#xe3;" horiz-adv-x="1064" d="M59 283q25 147 130.5 216.5t271.5 69.5l321 4q29 162 -14.5 242t-185.5 80q-88 0 -167 -42t-134 -105l-93 83q89 95 186.5 140t221.5 45q182 0 264 -109t49 -295l-106 -612h-115l25 178q-84 -103 -177 -150.5t-214 -47.5q-134 0 -210.5 84.5t-52.5 218.5zM197 260 q-8 -44 2.5 -76t37 -48.5t58.5 -24t72 -7.5q141 0 256.5 110t138.5 245l-301 -6q-97 0 -172 -51t-92 -142zM276 1198q18 104 72 165.5t141 61.5q57 0 101 -17.5t70 -42t48 -49t48 -42t57 -17.5q60 0 92 44t45 124l94 -12q-20 -122 -82.5 -184t-162.5 -62q-45 0 -83 17 t-65 41t-51.5 48t-53 41t-59.5 17q-55 0 -85.5 -41.5t-39.5 -101.5z" />
<glyph unicode="&#xe4;" horiz-adv-x="1064" d="M59 283q25 147 130.5 216.5t271.5 69.5l321 4q29 162 -14.5 242t-185.5 80q-88 0 -167 -42t-134 -105l-93 83q89 95 186.5 140t221.5 45q182 0 264 -109t49 -295l-106 -612h-115l25 178q-84 -103 -177 -150.5t-214 -47.5q-134 0 -210.5 84.5t-52.5 218.5zM197 260 q-8 -44 2.5 -76t37 -48.5t58.5 -24t72 -7.5q141 0 256.5 110t138.5 245l-301 -6q-97 0 -172 -51t-92 -142zM403 1188l27 164h150l-27 -164h-150zM731 1188l27 164h149l-26 -164h-150z" />
<glyph unicode="&#xe5;" horiz-adv-x="1064" d="M59 283q25 147 130.5 216.5t271.5 69.5l321 4q29 162 -14.5 242t-185.5 80q-88 0 -167 -42t-134 -105l-93 83q89 95 186.5 140t221.5 45q182 0 264 -109t49 -295l-106 -612h-115l25 178q-84 -103 -177 -150.5t-214 -47.5q-134 0 -210.5 84.5t-52.5 218.5zM197 260 q-8 -44 2.5 -76t37 -48.5t58.5 -24t72 -7.5q141 0 256.5 110t138.5 245l-301 -6q-97 0 -172 -51t-92 -142zM467 1284q14 75 75.5 126.5t137.5 51.5q80 0 128.5 -58t33.5 -142q-12 -73 -75 -126t-138 -53q-83 0 -129.5 58.5t-32.5 142.5zM553 1262q-4 -39 17.5 -63.5 t60.5 -24.5q44 0 81 32t44 78q6 38 -15 63t-61 25q-46 0 -81.5 -30.5t-45.5 -79.5z" />
<glyph unicode="&#xe6;" horiz-adv-x="1699" d="M49 285q27 146 133.5 215t274.5 69l321 4q16 101 7 175t-60.5 116.5t-144.5 42.5q-87 0 -166.5 -44t-132.5 -107l-101 73q89 96 187 141.5t223 45.5q251 0 299 -195q128 191 354 191q97 0 167 -29.5t109.5 -78.5t58.5 -119.5t18.5 -147t-15.5 -166.5q-2 2 -8 -25h-696 q-16 -68 -8 -130t34 -108.5t78.5 -74t124.5 -27.5q93 0 167.5 25t145.5 86l82 -78q-93 -82 -186 -116.5t-211 -34.5q-161 0 -245 80.5t-97 214.5q-158 -303 -445 -303q-134 0 -212.5 85t-55.5 220zM195 262q-13 -68 42 -116t123 -48q140 0 259.5 113t140.5 248l-303 -6 q-96 0 -170.5 -51t-91.5 -140zM895 563l575 10q26 144 -29.5 230t-195.5 86q-137 0 -228.5 -93.5t-121.5 -232.5z" />
<glyph unicode="&#xe7;" horiz-adv-x="1040" d="M105.5 354.5q-0.5 73.5 11.5 153.5q18 103 60 193t104.5 161t151.5 112.5t192 41.5q133 0 221 -70t121 -194l-133 -43q-9 90 -67.5 141t-148.5 51q-78 0 -144 -37.5t-109.5 -99t-72 -132t-40.5 -145.5q-9 -47 -10.5 -92.5t3.5 -90.5t20.5 -82t40.5 -66t65 -45.5t92 -16.5 q94 0 173.5 56t119.5 147l110 -61q-58 -111 -148.5 -175.5t-201.5 -76.5l-98 -117q95 -28 135.5 -70.5t28.5 -107.5q-13 -80 -77.5 -134.5t-135.5 -54.5q-64 0 -107.5 36t-54.5 89l86 35q2 -29 22 -49.5t52 -20.5q41 0 79.5 32t45.5 77q8 61 -76 88l-113 37l111 158 q-75 7 -133.5 39t-95 81t-58 114t-22 138.5z" />
<glyph unicode="&#xe8;" horiz-adv-x="1048" d="M89.5 343.5q-2.5 76.5 10.5 160.5q17 102 59 192.5t104.5 161.5t151.5 112.5t193 41.5q94 0 163 -29.5t107.5 -78.5t57.5 -119.5t18 -147.5t-16 -166q-2 2 -6 -25h-699q-29 -144 30 -242t200 -98q189 0 313 111l82 -78q-94 -83 -187 -117t-210 -34q-88 0 -158 27 t-113.5 74.5t-70.5 112.5t-29.5 141.5zM252 563l575 10q26 143 -30 229.5t-193 86.5q-138 0 -230 -93.5t-122 -232.5zM371 1413h155l162 -283h-133z" />
<glyph unicode="&#xe9;" horiz-adv-x="1048" d="M89.5 343.5q-2.5 76.5 10.5 160.5q17 102 59 192.5t104.5 161.5t151.5 112.5t193 41.5q94 0 163 -29.5t107.5 -78.5t57.5 -119.5t18 -147.5t-16 -166q-2 2 -6 -25h-699q-29 -144 30 -242t200 -98q189 0 313 111l82 -78q-94 -83 -187 -117t-210 -34q-88 0 -158 27 t-113.5 74.5t-70.5 112.5t-29.5 141.5zM252 563l575 10q26 143 -30 229.5t-193 86.5q-138 0 -230 -93.5t-122 -232.5zM541 1124l262 289h164l-314 -289h-112z" />
<glyph unicode="&#xea;" horiz-adv-x="1048" d="M89.5 343.5q-2.5 76.5 10.5 160.5q17 102 59 192.5t104.5 161.5t151.5 112.5t193 41.5q94 0 163 -29.5t107.5 -78.5t57.5 -119.5t18 -147.5t-16 -166q-2 2 -6 -25h-699q-29 -144 30 -242t200 -98q189 0 313 111l82 -78q-94 -83 -187 -117t-210 -34q-88 0 -158 27 t-113.5 74.5t-70.5 112.5t-29.5 141.5zM252 563l575 10q26 143 -30 229.5t-193 86.5q-138 0 -230 -93.5t-122 -232.5zM287 1098l393 358l276 -358h-143l-151 205l-224 -205h-151z" />
<glyph unicode="&#xeb;" horiz-adv-x="1048" d="M89.5 343.5q-2.5 76.5 10.5 160.5q17 102 59 192.5t104.5 161.5t151.5 112.5t193 41.5q94 0 163 -29.5t107.5 -78.5t57.5 -119.5t18 -147.5t-16 -166q-2 2 -6 -25h-699q-29 -144 30 -242t200 -98q189 0 313 111l82 -78q-94 -83 -187 -117t-210 -34q-88 0 -158 27 t-113.5 74.5t-70.5 112.5t-29.5 141.5zM252 563l575 10q26 143 -30 229.5t-193 86.5q-138 0 -230 -93.5t-122 -232.5zM397 1188l27 164h149l-26 -164h-150zM725 1188l27 164h149l-27 -164h-149z" />
<glyph unicode="&#xec;" horiz-adv-x="522" d="M82 0l176 999h156l-176 -999h-156zM104 1413h156l162 -283h-133z" />
<glyph unicode="&#xed;" horiz-adv-x="522" d="M82 0l176 999h156l-176 -999h-156zM274 1124l263 289h163l-313 -289h-113z" />
<glyph unicode="&#xee;" horiz-adv-x="522" d="M18 1098l394 358l276 -358h-143l-152 205l-223 -205h-152zM82 0l176 999h156l-176 -999h-156z" />
<glyph unicode="&#xef;" horiz-adv-x="522" d="M82 0l176 999h156l-176 -999h-156zM131 1188l27 164h149l-26 -164h-150zM459 1188l26 164h150l-27 -164h-149z" />
<glyph unicode="&#xf0;" horiz-adv-x="1183" d="M102 359.5q-5 79.5 7 166.5q20 105 68.5 198.5t119 166.5t167 115.5t204.5 42.5q80 0 146 -35t93 -82q1 112 -44 191.5t-132 146.5l-125 -148l-92 74l121 139q-88 46 -166 76l84 105q121 -57 160 -82l92 106l90 -74l-86 -98q59 -45 104 -96.5t84.5 -127.5t59.5 -165 t20 -210.5t-26 -262.5q-17 -104 -64 -198t-117.5 -166.5t-167 -115t-204.5 -42.5q-89 0 -162 29t-120.5 79.5t-78 119t-35.5 148zM252.5 391q0.5 -56 17.5 -106t45.5 -87.5t77 -59t111.5 -21.5q80 0 149.5 35t118.5 93.5t81.5 130.5t45.5 150q17 76 8.5 146.5t-35.5 124.5 t-82 86t-131 32q-81 0 -151 -35t-119.5 -93.5t-82.5 -130.5t-46 -150q-8 -59 -7.5 -115z" />
<glyph unicode="&#xf1;" horiz-adv-x="1142" d="M98 0l176 999h136l-31 -161q61 80 153.5 129t188.5 49q74 0 129.5 -22t87.5 -60t50.5 -90t18 -112t-9.5 -126l-106 -606h-135l104 600q13 53 10.5 104t-16.5 91.5t-53.5 65t-100.5 24.5q-127 0 -235 -96t-131 -226l-101 -563h-135zM315 1198q18 104 72 165.5t141 61.5 q57 0 101 -17.5t70 -42t48 -49t48 -42t57 -17.5q60 0 92 44t45 124l94 -12q-41 -246 -245 -246q-45 0 -83 17t-65 41t-51.5 48t-53 41t-59.5 17q-55 0 -85.5 -41.5t-39.5 -101.5z" />
<glyph unicode="&#xf2;" horiz-adv-x="1167" d="M104 506q37 214 191.5 360t355.5 146q137 0 234.5 -71t136.5 -191t14 -265q-39 -214 -194.5 -359.5t-356.5 -145.5q-137 0 -233.5 70.5t-134.5 190.5t-13 265zM244.5 368q-1.5 -56 14.5 -105t44 -85.5t77 -57t114 -20.5q82 0 150.5 33t116 90.5t78.5 128.5t46 154 q16 75 8.5 145t-31.5 123t-79.5 85t-135.5 32q-83 0 -152 -33t-116.5 -90.5t-78 -129t-44.5 -153.5q-10 -61 -11.5 -117zM426 1413h156l161 -283h-133z" />
<glyph unicode="&#xf3;" horiz-adv-x="1167" d="M104 506q37 214 191.5 360t355.5 146q137 0 234.5 -71t136.5 -191t14 -265q-39 -214 -194.5 -359.5t-356.5 -145.5q-137 0 -233.5 70.5t-134.5 190.5t-13 265zM244.5 368q-1.5 -56 14.5 -105t44 -85.5t77 -57t114 -20.5q82 0 150.5 33t116 90.5t78.5 128.5t46 154 q16 75 8.5 145t-31.5 123t-79.5 85t-135.5 32q-83 0 -152 -33t-116.5 -90.5t-78 -129t-44.5 -153.5q-10 -61 -11.5 -117zM596 1124l262 289h164l-313 -289h-113z" />
<glyph unicode="&#xf4;" horiz-adv-x="1167" d="M104 506q37 214 191.5 360t355.5 146q137 0 234.5 -71t136.5 -191t14 -265q-39 -214 -194.5 -359.5t-356.5 -145.5q-137 0 -233.5 70.5t-134.5 190.5t-13 265zM244.5 368q-1.5 -56 14.5 -105t44 -85.5t77 -57t114 -20.5q82 0 150.5 33t116 90.5t78.5 128.5t46 154 q16 75 8.5 145t-31.5 123t-79.5 85t-135.5 32q-83 0 -152 -33t-116.5 -90.5t-78 -129t-44.5 -153.5q-10 -61 -11.5 -117zM340 1098l393 358l277 -358h-144l-151 205l-223 -205h-152z" />
<glyph unicode="&#xf5;" horiz-adv-x="1167" d="M104 506q37 214 191.5 360t355.5 146q137 0 234.5 -71t136.5 -191t14 -265q-39 -214 -194.5 -359.5t-356.5 -145.5q-137 0 -233.5 70.5t-134.5 190.5t-13 265zM244.5 368q-1.5 -56 14.5 -105t44 -85.5t77 -57t114 -20.5q82 0 150.5 33t116 90.5t78.5 128.5t46 154 q16 75 8.5 145t-31.5 123t-79.5 85t-135.5 32q-83 0 -152 -33t-116.5 -90.5t-78 -129t-44.5 -153.5q-10 -61 -11.5 -117zM328 1198q18 104 72 165.5t141 61.5q57 0 100.5 -17.5t70 -42t48.5 -49t47.5 -42t56.5 -17.5q60 0 92 44t45 124l95 -12q-20 -122 -83 -184t-163 -62 q-45 0 -83 17t-64.5 41t-51 48t-53 41t-59.5 17q-55 0 -85.5 -41.5t-39.5 -101.5z" />
<glyph unicode="&#xf6;" horiz-adv-x="1167" d="M104 506q37 214 191.5 360t355.5 146q137 0 234.5 -71t136.5 -191t14 -265q-39 -214 -194.5 -359.5t-356.5 -145.5q-137 0 -233.5 70.5t-134.5 190.5t-13 265zM244.5 368q-1.5 -56 14.5 -105t44 -85.5t77 -57t114 -20.5q82 0 150.5 33t116 90.5t78.5 128.5t46 154 q16 75 8.5 145t-31.5 123t-79.5 85t-135.5 32q-83 0 -152 -33t-116.5 -90.5t-78 -129t-44.5 -153.5q-10 -61 -11.5 -117zM453 1188l26 164h150l-27 -164h-149zM780 1188l27 164h149l-26 -164h-150z" />
<glyph unicode="&#xf7;" horiz-adv-x="940" d="M154 387v102h632v-102h-632zM379 -47v182h184v-182h-184zM379 725v182h184v-182h-184z" />
<glyph unicode="&#xf8;" horiz-adv-x="1167" d="M104 506q37 214 191.5 360t355.5 146q124 0 221 -62l33 45h58l-54 -73q82 -71 116 -186t11 -251q-39 -214 -194.5 -359.5t-356.5 -145.5q-131 0 -225 63l-29 -39h-59l51 70q-79 71 -111 185.5t-8 246.5zM248.5 314.5q11.5 -82.5 52.5 -134.5l496 670q-56 41 -150 41 q-83 0 -152 -33t-116.5 -90.5t-78 -129t-44.5 -153.5q-19 -88 -7.5 -170.5zM336 145q61 -45 158 -45q82 0 150.5 33t116 90.5t78.5 128.5t46 154q34 210 -54 311z" />
<glyph unicode="&#xf9;" horiz-adv-x="1171" d="M136 277q1 64 11 133l105 589h135l-106 -606q-49 -301 153 -301q126 0 238.5 103.5t136.5 234.5l100 569h135l-176 -999h-135l31 170q-43 -71 -139.5 -132t-204.5 -61q-74 0 -129 23t-87 63.5t-50.5 95t-17.5 118.5zM428 1413h156l161 -283h-133z" />
<glyph unicode="&#xfa;" horiz-adv-x="1171" d="M136 277q1 64 11 133l105 589h135l-106 -606q-49 -301 153 -301q126 0 238.5 103.5t136.5 234.5l100 569h135l-176 -999h-135l31 170q-43 -71 -139.5 -132t-204.5 -61q-74 0 -129 23t-87 63.5t-50.5 95t-17.5 118.5zM598 1124l262 289h164l-313 -289h-113z" />
<glyph unicode="&#xfb;" horiz-adv-x="1171" d="M136 277q1 64 11 133l105 589h135l-106 -606q-49 -301 153 -301q126 0 238.5 103.5t136.5 234.5l100 569h135l-176 -999h-135l31 170q-43 -71 -139.5 -132t-204.5 -61q-74 0 -129 23t-87 63.5t-50.5 95t-17.5 118.5zM344 1098l393 358l277 -358h-144l-151 205l-223 -205 h-152z" />
<glyph unicode="&#xfc;" horiz-adv-x="1171" d="M136 277q1 64 11 133l105 589h135l-106 -606q-49 -301 153 -301q126 0 238.5 103.5t136.5 234.5l100 569h135l-176 -999h-135l31 170q-43 -71 -139.5 -132t-204.5 -61q-74 0 -129 23t-87 63.5t-50.5 95t-17.5 118.5zM457 1188l26 164h150l-27 -164h-149zM784 1188l27 164 h150l-27 -164h-150z" />
<glyph unicode="&#xfd;" horiz-adv-x="974" d="M88 -430l242 434l-203 995h147l148 -833l436 833h156l-783 -1429h-143zM500 1124l262 289h164l-314 -289h-112z" />
<glyph unicode="&#xfe;" horiz-adv-x="1191" d="M25 -438l327 1851h150l-101 -557q132 164 340 164q125 0 205 -72t105.5 -191t-0.5 -268q-25 -144 -89 -258.5t-165 -182.5t-222 -68q-212 0 -294 174l-107 -592h-149zM317.5 299.5q11.5 -84.5 69 -137.5t154.5 -53q74 0 138 32.5t109.5 88.5t76.5 126.5t46 151.5 q16 77 10 146t-29 121.5t-74 83t-124 30.5q-75 0 -139.5 -32.5t-110 -88.5t-76.5 -127t-46 -152q-16 -105 -4.5 -189.5z" />
<glyph unicode="&#xff;" horiz-adv-x="974" d="M88 -430l242 434l-203 995h147l148 -833l436 833h156l-783 -1429h-143zM358 1188l27 164h150l-27 -164h-150zM686 1188l27 164h149l-26 -164h-150z" />
<glyph unicode="&#x152;" horiz-adv-x="2254" d="M135 523.5q-3 93.5 17 193.5q26 150 86 277.5t151 227t221.5 156t284.5 56.5q358 0 440 -295l49 274h891l-20 -125h-748l-94 -520h660l-23 -123h-659l-88 -514h747l-25 -131h-890l47 264q-173 -284 -527 -284q-106 0 -192 26.5t-145.5 75t-102 116.5t-60 150t-20.5 175.5 zM278.5 546.5q-0.5 -71.5 11.5 -137.5t41.5 -120t73.5 -94t110 -62t149 -22q126 0 231.5 49.5t178 136t120 192.5t68.5 228q14 78 14.5 149.5t-12 138t-42 120.5t-74 94t-110.5 62t-149 22q-126 0 -231.5 -50t-178 -136t-119 -192.5t-67.5 -228.5q-14 -78 -14.5 -149.5z" />
<glyph unicode="&#x153;" horiz-adv-x="1824" d="M96 506q37 214 191.5 360t355.5 146q127 0 214 -59.5t124 -159.5q140 219 387 219q94 0 163 -29t107.5 -78.5t57 -119.5t17.5 -147t-17 -167l-6 -22h-697q-17 -70 -9.5 -133t32.5 -110.5t77.5 -75.5t125.5 -28q95 0 168 23.5t143 83.5l78 -74q-92 -83 -181.5 -115 t-209.5 -32q-133 0 -215.5 57t-116.5 156q-74 -105 -179 -163t-231 -58q-136 0 -232.5 70.5t-134 190.5t-12.5 265zM236.5 343.5q7.5 -68.5 31.5 -121t80 -84.5t137 -32q84 0 153 32.5t116 89.5t78 127t45 151q16 74 8.5 142.5t-32.5 121t-81 84t-137 31.5 q-83 0 -151.5 -32.5t-115.5 -89.5t-77.5 -127t-44.5 -151q-17 -73 -9.5 -141.5zM1012 563l577 10q27 145 -29.5 231.5t-197.5 86.5q-139 0 -230.5 -94t-119.5 -234z" />
<glyph unicode="&#x178;" horiz-adv-x="1251" d="M174 1413h164l305 -711l561 711h172l-680 -860l-100 -553h-145l100 553zM569 1602l27 163h149l-26 -163h-150zM897 1602l27 163h149l-26 -163h-150z" />
<glyph unicode="&#x2000;" horiz-adv-x="935" />
<glyph unicode="&#x2001;" horiz-adv-x="1870" />
<glyph unicode="&#x2002;" horiz-adv-x="935" />
<glyph unicode="&#x2003;" horiz-adv-x="1870" />
<glyph unicode="&#x2004;" horiz-adv-x="623" />
<glyph unicode="&#x2005;" horiz-adv-x="467" />
<glyph unicode="&#x2006;" horiz-adv-x="311" />
<glyph unicode="&#x2007;" horiz-adv-x="311" />
<glyph unicode="&#x2008;" horiz-adv-x="233" />
<glyph unicode="&#x2009;" horiz-adv-x="374" />
<glyph unicode="&#x200a;" horiz-adv-x="103" />
<glyph unicode="&#x2010;" horiz-adv-x="890" d="M205 637l16 102h502l-16 -102h-502z" />
<glyph unicode="&#x2011;" horiz-adv-x="890" d="M205 637l16 102h502l-16 -102h-502z" />
<glyph unicode="&#x2012;" horiz-adv-x="890" d="M205 637l16 102h502l-16 -102h-502z" />
<glyph unicode="&#x2013;" horiz-adv-x="849" d="M84 590l18 102h686l-18 -102h-686z" />
<glyph unicode="&#x2014;" horiz-adv-x="1341" d="M2 590l18 102h1342l-19 -102h-1341z" />
<glyph unicode="&#x2018;" horiz-adv-x="405" d="M156 1413h178l35 -475h-82z" />
<glyph unicode="&#x2019;" horiz-adv-x="409" d="M168 938l203 475h182l-301 -475h-84z" />
<glyph unicode="&#x201a;" horiz-adv-x="409" d="M-39 -225l205 489h190l-305 -489h-90z" />
<glyph unicode="&#x201c;" horiz-adv-x="763" d="M240 1413h180l33 -475h-82zM532 1413h181l32 -475h-79z" />
<glyph unicode="&#x201d;" horiz-adv-x="704" d="M168 938l203 475h182l-301 -475h-84zM463 938l203 475h182l-301 -475h-84z" />
<glyph unicode="&#x201e;" horiz-adv-x="716" d="M-39 -225l205 489h190l-305 -489h-90zM268 -225l205 489h191l-306 -489h-90z" />
<glyph unicode="&#x2022;" horiz-adv-x="782" d="M137 492q17 95 96 161t175 66q101 0 160 -73.5t40 -174.5q-15 -95 -93.5 -161t-174.5 -66q-101 0 -160.5 73t-42.5 175z" />
<glyph unicode="&#x2026;" horiz-adv-x="1241" d="M8 0l31 182h192l-30 -182h-193zM422 0l31 182h192l-31 -182h-192zM836 0l30 182h193l-31 -182h-192z" />
<glyph unicode="&#x202f;" horiz-adv-x="374" />
<glyph unicode="&#x2039;" horiz-adv-x="663" d="M141 510l414 324l-23 -154l-227 -170l164 -168l-20 -154z" />
<glyph unicode="&#x203a;" horiz-adv-x="663" d="M84 188l22 154l228 168l-164 170l20 154l308 -324z" />
<glyph unicode="&#x205f;" horiz-adv-x="467" />
<glyph unicode="&#x20ac;" horiz-adv-x="1140" d="M39 471l82 135l63 4q3 26 15 107q3 27 24 108l-123 -6l82 133l82 4q82 218 228 349t342 131q230 0 342 -197l-117 -84q-71 117 -242 117q-135 0 -239.5 -88.5t-169.5 -237.5l530 6l-80 -133l-496 -6q-20 -83 -24 -108q-6 -33 -14 -107l553 4l-82 -133l-471 -6 q8 -148 79 -234t205 -86q169 0 279 127l88 -118q-166 -172 -383 -172q-83 0 -151 24.5t-116 68.5t-80.5 106t-48 136.5t-16.5 161.5z" />
<glyph unicode="&#x2122;" horiz-adv-x="913" d="M164 1356l10 57h361l-11 -57h-145l-86 -479h-70l86 479h-145zM498 877l96 536h78l80 -358l204 358h82l-96 -536h-70l74 405l-174 -324h-67l-62 326l-76 -407h-69z" />
<glyph unicode="&#x25fc;" horiz-adv-x="1003" d="M0 0v1004h1004v-1004h-1004z" />
<glyph unicode="&#xfb03;" horiz-adv-x="1503" d="M86 0l156 887h-140l21 112h141l23 131q24 138 127 221t239 83q161 0 262 -113q55 52 132.5 82.5t154.5 30.5q145 0 285 -119l-86 -90q-2 4 -9.5 13.5t-25 24.5t-39.5 27.5t-56 21.5t-71 9q-94 0 -165.5 -56t-88.5 -149l-22 -117h512l-176 -999h-121l157 887h-391 l-157 -887h-127l155 887h-405l-156 -887h-129zM391 999h408l22 131q10 58 29 107q-8 10 -19 20.5t-34 27t-60 26.5t-80 10q-97 0 -162.5 -55t-82.5 -150zM1401 1223v2v-2z" />
<glyph unicode="&#xfb04;" horiz-adv-x="1497" d="M80 0l156 887h-140l19 112h143l21 125q25 138 129 224t245 86q162 0 277 -115q59 57 124 86t156 29q94 0 150.5 -28.5t120.5 -105.5l-199 -1140q-8 -26 -5 -38.5t30 -12.5q16 0 35 3.5t30 7.5l10 3l-14 -117q-55 -26 -100 -26q-44 0 -71.5 14.5t-35.5 36.5t-10.5 48 t4.5 48l199 1120q-12 31 -53.5 52.5t-94.5 21.5q-93 0 -162 -58.5t-86 -150.5l-20 -113h164l-21 -112h-161l-158 -887h-127l156 887h-426l-158 -887h-127zM383 999l432 7q26 168 47 217q-15 19 -28 31t-37.5 30t-57.5 27.5t-73 9.5q-97 0 -171 -56.5t-92 -150.5z" />
</font>
</defs>
</svg>
